<mxfile host="app.diagrams.net" agent="Mozilla/5.0 (Macintosh; Intel Mac OS X 10_15_7) AppleWebKit/537.36 (KHTML, like Gecko) Chrome/131.0.0.0 Safari/537.36" version="25.0.3">
  <diagram name="Page-1" id="aKR1AACXM7DnohEhcdoZ">
    <mxGraphModel dx="2044" dy="789" grid="1" gridSize="10" guides="1" tooltips="1" connect="1" arrows="1" fold="1" page="1" pageScale="1" pageWidth="850" pageHeight="1100" math="0" shadow="0">
      <root>
        <mxCell id="0" />
        <mxCell id="1" parent="0" />
        <mxCell id="WHsRtFuzSWvr3R38efq_-4" style="edgeStyle=orthogonalEdgeStyle;rounded=0;orthogonalLoop=1;jettySize=auto;html=1;" edge="1" parent="1" source="WHsRtFuzSWvr3R38efq_-1">
          <mxGeometry relative="1" as="geometry">
            <mxPoint x="160" y="480" as="targetPoint" />
          </mxGeometry>
        </mxCell>
        <mxCell id="WHsRtFuzSWvr3R38efq_-1" value="start" style="strokeWidth=2;html=1;shape=mxgraph.flowchart.start_1;whiteSpace=wrap;" vertex="1" parent="1">
          <mxGeometry y="450" width="100" height="60" as="geometry" />
        </mxCell>
        <mxCell id="WHsRtFuzSWvr3R38efq_-2" value="&lt;div style=&quot;text-align: start;&quot;&gt;&lt;br&gt;&lt;/div&gt;" style="text;html=1;align=center;verticalAlign=middle;resizable=0;points=[];autosize=1;strokeColor=none;fillColor=none;" vertex="1" parent="1">
          <mxGeometry x="110" y="378" width="20" height="30" as="geometry" />
        </mxCell>
        <mxCell id="WHsRtFuzSWvr3R38efq_-3" value="ax^2 + bx + c = 0" style="text;html=1;align=center;verticalAlign=middle;resizable=0;points=[];autosize=1;strokeColor=none;fillColor=none;" vertex="1" parent="1">
          <mxGeometry y="420" width="110" height="30" as="geometry" />
        </mxCell>
        <mxCell id="WHsRtFuzSWvr3R38efq_-8" style="edgeStyle=orthogonalEdgeStyle;rounded=0;orthogonalLoop=1;jettySize=auto;html=1;" edge="1" parent="1" source="WHsRtFuzSWvr3R38efq_-6">
          <mxGeometry relative="1" as="geometry">
            <mxPoint x="320" y="480" as="targetPoint" />
          </mxGeometry>
        </mxCell>
        <mxCell id="WHsRtFuzSWvr3R38efq_-6" value="nhap a, b, c" style="shape=parallelogram;html=1;strokeWidth=2;perimeter=parallelogramPerimeter;whiteSpace=wrap;rounded=1;arcSize=12;size=0.23;" vertex="1" parent="1">
          <mxGeometry x="150" y="450" width="100" height="60" as="geometry" />
        </mxCell>
        <mxCell id="WHsRtFuzSWvr3R38efq_-9" value="delta = b^2 - 4*a*c" style="rounded=1;whiteSpace=wrap;html=1;absoluteArcSize=1;arcSize=14;strokeWidth=2;" vertex="1" parent="1">
          <mxGeometry x="320" y="440" width="120" height="80" as="geometry" />
        </mxCell>
        <mxCell id="WHsRtFuzSWvr3R38efq_-16" style="edgeStyle=orthogonalEdgeStyle;rounded=0;orthogonalLoop=1;jettySize=auto;html=1;" edge="1" parent="1" source="WHsRtFuzSWvr3R38efq_-10">
          <mxGeometry relative="1" as="geometry">
            <mxPoint x="520" y="640" as="targetPoint" />
          </mxGeometry>
        </mxCell>
        <mxCell id="WHsRtFuzSWvr3R38efq_-10" value="delta &amp;gt; 0&lt;span style=&quot;color: rgba(0, 0, 0, 0); font-family: monospace; font-size: 0px; text-align: start; text-wrap-mode: nowrap;&quot;&gt;%3CmxGraphModel%3E%3Croot%3E%3CmxCell%20id%3D%220%22%2F%3E%3CmxCell%20id%3D%221%22%20parent%3D%220%22%2F%3E%3CmxCell%20id%3D%222%22%20value%3D%22%22%20style%3D%22strokeWidth%3D2%3Bhtml%3D1%3Bshape%3Dmxgraph.flowchart.decision%3BwhiteSpace%3Dwrap%3B%22%20vertex%3D%221%22%20parent%3D%221%22%3E%3CmxGeometry%20x%3D%22340%22%20y%3D%22600%22%20width%3D%2280%22%20height%3D%2280%22%20as%3D%22geometry%22%2F%3E%3C%2FmxCell%3E%3C%2Froot%3E%3C%2FmxGraphModel%3E&lt;/span&gt;" style="strokeWidth=2;html=1;shape=mxgraph.flowchart.decision;whiteSpace=wrap;" vertex="1" parent="1">
          <mxGeometry x="340" y="600" width="80" height="80" as="geometry" />
        </mxCell>
        <mxCell id="WHsRtFuzSWvr3R38efq_-17" style="edgeStyle=orthogonalEdgeStyle;rounded=0;orthogonalLoop=1;jettySize=auto;html=1;" edge="1" parent="1" source="WHsRtFuzSWvr3R38efq_-11">
          <mxGeometry relative="1" as="geometry">
            <mxPoint x="520" y="800" as="targetPoint" />
          </mxGeometry>
        </mxCell>
        <mxCell id="WHsRtFuzSWvr3R38efq_-11" value="delta &amp;lt; 0" style="strokeWidth=2;html=1;shape=mxgraph.flowchart.decision;whiteSpace=wrap;" vertex="1" parent="1">
          <mxGeometry x="340" y="760" width="80" height="80" as="geometry" />
        </mxCell>
        <mxCell id="WHsRtFuzSWvr3R38efq_-18" style="edgeStyle=orthogonalEdgeStyle;rounded=0;orthogonalLoop=1;jettySize=auto;html=1;" edge="1" parent="1" source="WHsRtFuzSWvr3R38efq_-12">
          <mxGeometry relative="1" as="geometry">
            <mxPoint x="520" y="960" as="targetPoint" />
          </mxGeometry>
        </mxCell>
        <mxCell id="WHsRtFuzSWvr3R38efq_-12" value="delta = 0" style="strokeWidth=2;html=1;shape=mxgraph.flowchart.decision;whiteSpace=wrap;" vertex="1" parent="1">
          <mxGeometry x="340" y="920" width="80" height="80" as="geometry" />
        </mxCell>
        <mxCell id="WHsRtFuzSWvr3R38efq_-13" style="edgeStyle=orthogonalEdgeStyle;rounded=0;orthogonalLoop=1;jettySize=auto;html=1;entryX=0.5;entryY=0;entryDx=0;entryDy=0;entryPerimeter=0;" edge="1" parent="1" source="WHsRtFuzSWvr3R38efq_-9" target="WHsRtFuzSWvr3R38efq_-10">
          <mxGeometry relative="1" as="geometry" />
        </mxCell>
        <mxCell id="WHsRtFuzSWvr3R38efq_-14" style="edgeStyle=orthogonalEdgeStyle;rounded=0;orthogonalLoop=1;jettySize=auto;html=1;entryX=0.5;entryY=0;entryDx=0;entryDy=0;entryPerimeter=0;" edge="1" parent="1" source="WHsRtFuzSWvr3R38efq_-10" target="WHsRtFuzSWvr3R38efq_-11">
          <mxGeometry relative="1" as="geometry" />
        </mxCell>
        <mxCell id="WHsRtFuzSWvr3R38efq_-15" style="edgeStyle=orthogonalEdgeStyle;rounded=0;orthogonalLoop=1;jettySize=auto;html=1;entryX=0.5;entryY=0;entryDx=0;entryDy=0;entryPerimeter=0;" edge="1" parent="1" source="WHsRtFuzSWvr3R38efq_-11" target="WHsRtFuzSWvr3R38efq_-12">
          <mxGeometry relative="1" as="geometry" />
        </mxCell>
        <mxCell id="WHsRtFuzSWvr3R38efq_-19" value="print&quot;(pt vo nghiem&quot;)" style="strokeWidth=2;html=1;shape=mxgraph.flowchart.display;whiteSpace=wrap;" vertex="1" parent="1">
          <mxGeometry x="520" y="770" width="230" height="60" as="geometry" />
        </mxCell>
        <mxCell id="WHsRtFuzSWvr3R38efq_-20" value="print(&quot;pt co nghiem kep x1 = x2 = -b/a&quot;)" style="strokeWidth=2;html=1;shape=mxgraph.flowchart.display;whiteSpace=wrap;" vertex="1" parent="1">
          <mxGeometry x="520" y="930" width="230" height="60" as="geometry" />
        </mxCell>
        <mxCell id="WHsRtFuzSWvr3R38efq_-22" value="print(&quot;pt co nghiem x1 = (-b + sqrt delta) / 2a, x2 = (&amp;nbsp;(-b - sqrt delta) / 2a&quot;)" style="strokeWidth=2;html=1;shape=mxgraph.flowchart.display;whiteSpace=wrap;" vertex="1" parent="1">
          <mxGeometry x="520" y="610" width="470" height="60" as="geometry" />
        </mxCell>
      </root>
    </mxGraphModel>
  </diagram>
</mxfile>
